# xmcd CD database file
#
# Track frame offsets:
#	182
#	44967
#	88340
#	135425
#	190327
#	232940
#	245882
#
# Disc length: 3906 seconds
#
# Revision: 0
# Processed by: cddbd v1.5.2PL0 Copyright (c) Steve Scherf et al.
# Submitted via: CDex 1.51
#
DISCID=650f4007
DTITLE=Brown, Rob - Round the bend
DYEAR=2002
DGENRE=Jazz
TTITLE0=Lampost ring
TTITLE1=Ripples
TTITLE2=Unwind
TTITLE3=A flower is a lovesome thing
TTITLE4=Loaded hand
TTITLE5=A whirl
TTITLE6=Unfurling
EXTD=YEAR: 2002
EXTT0=
EXTT1=
EXTT2=
EXTT3=
EXTT4=
EXTT5=
EXTT6=
PLAYORDER=
